<?xml version="1.0" standalone="no"?>
<!DOCTYPE svg PUBLIC "-//W3C//DTD SVG 20010904//EN"
 "http://www.w3.org/TR/2001/REC-SVG-20010904/DTD/svg10.dtd">
<svg version="1.0" xmlns="http://www.w3.org/2000/svg"
 width="1024.000000pt" height="1024.000000pt" viewBox="0 0 1024.000000 1024.000000"
 preserveAspectRatio="xMidYMid meet">

<g transform="translate(0.000000,1024.000000) scale(0.100000,-0.100000)"
fill="#000000" stroke="none">
<path d="M6111 9053 c-38 -38 -47 -74 -32 -124 15 -51 53 -75 134 -83 317 -34
607 -139 837 -303 121 -87 286 -252 373 -373 81 -115 175 -301 216 -430 32
-102 61 -251 61 -312 0 -20 5 -60 11 -88 13 -60 50 -90 112 -90 56 0 92 23
111 71 15 36 16 54 6 133 -44 372 -187 703 -429 990 -143 168 -362 338 -577
445 -205 101 -482 178 -686 188 l-107 6 -30 -30z"/>
<path d="M6145 8600 c-61 -25 -89 -102 -60 -163 21 -45 57 -61 165 -77 293
-41 586 -211 757 -438 113 -149 176 -300 212 -502 19 -103 24 -118 51 -142 62
-57 167 -28 191 52 22 74 -38 334 -116 496 -198 412 -584 693 -1055 769 -106
17 -117 17 -145 5z"/>
<path d="M3330 8340 c-41 -5 -95 -15 -120 -24 -147 -54 -277 -203 -309 -354
-7 -34 -11 -199 -11 -465 0 -408 1 -412 23 -451 25 -44 77 -76 122 -76 43 0
105 39 129 80 20 33 21 54 26 445 4 292 8 416 17 431 21 37 91 93 130 104 27
8 393 10 1308 8 1391 -4 1310 -1 1450 -63 214 -94 412 -319 495 -560 49 -143
50 -159 50 -1226 l0 -998 53 24 c28 13 93 31 142 41 50 9 96 18 103 20 9 3 12
172 12 806 -1 948 -8 1169 -44 1313 -31 123 -54 183 -117 305 -54 106 -149
236 -168 232 -7 -1 -9 2 -5 9 9 15 -118 135 -218 205 -98 69 -258 145 -368
175 l-85 23 -1270 2 c-698 1 -1304 -2 -1345 -6z"/>
<path d="M4948 7425 c-140 -35 -279 -125 -353 -229 -87 -123 -115 -228 -115
-444 l-1 -137 -31 -20 c-53 -34 -73 -86 -73 -190 0 -151 53 -253 149 -290 40
-16 43 -19 59 -84 20 -77 67 -181 103 -228 21 -28 24 -42 24 -115 0 -103 -12
-149 -52 -194 -40 -45 -59 -55 -234 -114 -354 -120 -510 -195 -604 -290 -118
-117 -157 -222 -167 -445 -6 -153 1 -195 43 -252 50 -67 -23 -64 1334 -61
l1225 3 -3 35 c-2 19 -4 98 -5 175 -1 127 2 148 26 220 30 90 75 170 137 244
25 29 40 56 37 65 -9 24 -106 95 -179 132 -91 46 -241 105 -433 171 -192 66
-205 72 -243 119 -37 44 -52 101 -52 192 0 66 2 73 45 137 31 45 56 101 78
171 30 99 34 105 66 115 91 30 151 149 151 298 0 91 -26 154 -77 186 l-32 20
-1 138 c0 84 -6 168 -16 215 -42 207 -183 364 -396 440 -63 22 -92 26 -213 29
-97 2 -157 -2 -197 -12z"/>
<path d="M2514 7414 c-47 -17 -102 -66 -110 -100 -4 -16 -26 -34 -68 -56 -90
-48 -185 -146 -229 -238 -46 -96 -61 -179 -54 -283 10 -135 81 -454 142 -635
45 -131 55 -173 50 -203 -10 -55 9 -108 73 -206 132 -201 288 -324 494 -392
l67 -22 3 -727 3 -727 27 -73 c86 -238 272 -391 511 -422 40 -5 374 -10 743
-10 l670 0 57 -69 c346 -420 982 -552 1485 -307 137 67 290 176 276 197 -3 5
1 6 9 3 17 -6 123 110 192 211 54 79 112 198 143 295 25 79 52 207 52 252 0
18 3 50 6 70 6 31 11 38 38 43 73 16 178 77 245 143 75 74 112 134 140 226 27
89 33 152 22 233 -22 152 -92 274 -206 360 -220 166 -521 147 -714 -45 -110
-110 -161 -233 -161 -387 0 -153 51 -276 160 -386 59 -59 153 -117 233 -143
52 -16 -18 -328 -108 -479 -19 -32 -33 -63 -29 -68 3 -5 1 -8 -4 -7 -5 2 -29
-21 -53 -51 -67 -84 -192 -184 -299 -240 -111 -58 -199 -87 -320 -107 -277
-45 -583 34 -801 208 l-54 43 475 6 c528 7 530 7 670 77 151 75 273 235 321
419 19 75 19 79 2 91 -10 7 -52 37 -93 67 l-75 55 -1576 0 -1576 0 -33 23
c-18 12 -43 35 -54 50 -21 28 -21 38 -24 602 l-2 573 72 22 c146 44 264 115
374 224 135 136 225 299 205 374 -6 20 4 60 37 152 88 252 168 644 158 780
-13 179 -114 337 -273 426 -37 20 -63 42 -63 51 0 28 -51 84 -94 104 -56 25
-122 24 -176 -3 -64 -33 -84 -73 -83 -169 0 -100 22 -145 84 -177 52 -27 129
-26 191 4 37 17 37 17 77 -9 87 -58 135 -155 134 -272 0 -121 -70 -438 -149
-677 -30 -89 -41 -111 -64 -125 -26 -15 -50 -52 -84 -133 -6 -14 -51 -66 -101
-116 -72 -72 -106 -98 -165 -127 -95 -45 -175 -61 -262 -53 -187 17 -382 157
-464 333 -20 43 -45 81 -63 94 -25 19 -38 45 -75 158 -24 75 -51 161 -60 191
-24 88 -86 411 -86 451 0 72 37 164 89 221 73 80 89 86 153 58 137 -59 268 23
268 168 0 152 -109 234 -246 186z m4583 -2580 c182 -87 241 -316 123 -478 -90
-121 -272 -167 -401 -100 -51 26 -119 95 -147 149 -23 43 -27 63 -27 135 0 73
4 93 28 142 78 159 267 227 424 152z m-1967 -1069 c37 -19 50 -43 50 -90 0
-92 -34 -105 -275 -105 -200 0 -238 7 -269 51 -33 48 -13 129 38 149 11 5 112
9 224 9 162 1 209 -2 232 -14z"/>
<path d="M6901 4663 c-46 -23 -71 -67 -71 -126 0 -138 196 -177 252 -49 33 73
4 148 -68 178 -43 18 -71 17 -113 -3z"/>
<path d="M3014 2436 c-235 -54 -374 -251 -374 -531 0 -224 92 -400 250 -479
91 -45 165 -60 270 -53 141 8 258 67 335 168 l39 52 -29 24 c-17 13 -50 35
-74 49 l-43 26 -52 -50 c-63 -61 -103 -82 -170 -89 -195 -20 -342 159 -323
392 18 211 143 338 318 322 72 -6 127 -35 177 -92 l40 -46 76 42 c42 24 76 48
76 54 0 23 -59 92 -110 130 -107 79 -272 111 -406 81z"/>
<path d="M5754 2426 c-2 -6 -3 -243 -2 -526 l3 -515 85 0 85 0 3 358 c1 196 6
357 10 357 4 -1 31 -35 60 -78 29 -42 143 -203 255 -357 l202 -280 93 -1 92 0
0 528 0 529 -82 -3 -83 -3 -3 -367 c-1 -203 -6 -368 -10 -368 -4 1 -48 60 -99
133 -129 185 -401 568 -418 590 -12 14 -30 17 -101 16 -54 -1 -87 -5 -90 -13z
m873 -578 c-3 -8 -6 -5 -6 6 -1 11 2 17 5 13 3 -3 4 -12 1 -19z"/>
<path d="M1694 2161 c-69 -25 -117 -59 -158 -112 -116 -152 -110 -422 14 -562
136 -155 419 -155 573 0 l39 38 -53 48 c-29 26 -58 47 -63 47 -6 0 -24 -14
-41 -31 -47 -48 -83 -63 -156 -63 -57 0 -74 4 -115 29 -51 31 -85 84 -99 153
l-7 32 271 0 271 0 0 68 c0 135 -57 264 -138 316 -90 56 -239 73 -338 37z
m264 -15 c17 -9 35 -16 39 -16 19 0 84 -59 105 -95 38 -65 49 -105 55 -197 l6
-88 -266 0 c-179 0 -268 -4 -272 -11 -4 -6 -1 -32 6 -57 30 -112 103 -167 219
-167 71 1 106 15 165 66 40 35 33 37 108 -30 l27 -25 -44 -41 c-70 -67 -176
-105 -292 -105 -58 0 -166 35 -197 64 -15 14 -27 22 -27 19 0 -15 -62 64 -80
102 -24 50 -50 163 -50 220 0 54 25 156 50 205 42 82 123 147 215 171 49 13
197 4 233 -15z"/>
<path d="M1753 2039 c-46 -13 -100 -71 -113 -120 -19 -70 -21 -69 172 -67
l173 2 -172 3 c-194 4 -189 1 -154 79 44 97 163 132 256 74 40 -25 62 -62 75
-123 7 -40 8 -40 9 -9 1 45 -20 92 -59 125 -50 45 -114 57 -187 36z"/>
<path d="M3860 2170 c-62 -13 -159 -63 -194 -99 l-29 -30 47 -56 c26 -30 50
-55 52 -55 2 0 28 16 57 35 130 85 271 56 293 -61 3 -19 4 -37 2 -40 -3 -2
-56 -9 -119 -15 -129 -11 -174 -21 -240 -55 -56 -28 -95 -71 -109 -122 -31
-114 13 -221 114 -275 32 -17 58 -22 121 -22 87 0 143 17 201 61 l33 25 3 -38
3 -38 90 0 90 1 0 289 0 290 -30 60 c-33 66 -91 117 -153 135 -53 16 -179 21
-232 10z m230 -487 c0 -92 -63 -153 -157 -153 -65 0 -100 16 -119 53 -12 22
-13 35 -4 61 18 55 89 82 223 85 l57 1 0 -47z"/>
<path d="M4754 2157 c-27 -14 -67 -44 -87 -67 l-37 -44 0 58 0 57 -92 -3 -93
-3 0 -385 0 -385 90 0 90 0 6 225 c6 248 12 275 72 326 39 33 67 44 137 52
l55 7 0 90 0 90 -45 3 c-31 1 -61 -5 -96 -21z"/>
<path d="M5225 2174 c-121 -31 -194 -81 -248 -171 -44 -72 -59 -132 -59 -240
0 -247 166 -406 410 -390 97 6 177 40 252 107 l45 40 -54 50 c-30 28 -60 50
-66 50 -6 0 -22 -12 -36 -26 -80 -86 -237 -87 -316 -2 -23 25 -53 97 -53 129
0 18 13 19 266 19 l267 0 -6 88 c-10 158 -67 256 -180 312 -62 31 -170 47
-222 34z m132 -161 c39 -18 78 -71 88 -120 l7 -33 -171 0 c-162 0 -171 1 -171
19 0 52 43 114 95 137 41 18 110 17 152 -3z"/>
<path d="M7085 2174 c-203 -52 -305 -187 -305 -404 0 -174 75 -303 213 -366
56 -26 72 -29 168 -29 101 0 108 1 180 37 40 20 90 53 108 72 l35 36 -40 41
c-61 63 -69 65 -113 29 -54 -42 -102 -60 -161 -60 -112 0 -184 61 -204 173
l-7 37 267 0 266 0 -4 93 c-7 152 -68 255 -186 310 -63 29 -165 44 -217 31z
m152 -170 c40 -30 63 -65 70 -107 l6 -37 -172 0 c-193 0 -188 -3 -152 76 17
37 53 72 91 87 31 13 130 1 157 -19z"/>
<path d="M7924 2156 c-27 -13 -67 -43 -87 -66 l-37 -44 0 57 0 57 -90 0 -90 0
2 -387 3 -388 80 -1 c44 -1 85 3 92 8 8 7 12 73 13 229 0 124 5 231 11 247 15
39 67 90 107 103 19 6 58 14 86 18 l51 6 3 93 3 92 -48 0 c-29 0 -68 -9 -99
-24z"/>
<path d="M8320 2164 c-71 -22 -122 -56 -155 -102 -28 -40 -30 -50 -30 -126 0
-75 2 -86 29 -120 47 -63 90 -83 235 -111 94 -18 133 -41 145 -84 9 -31 7 -36
-24 -64 -32 -28 -36 -29 -109 -25 -77 5 -129 26 -186 79 -21 18 -22 18 -75
-37 l-55 -55 52 -49 c78 -72 143 -94 273 -95 128 0 188 22 250 93 45 50 60 93
60 167 -1 124 -76 193 -253 229 -81 17 -136 34 -154 49 -7 5 -13 25 -13 43 0
46 36 69 110 69 45 -1 68 -8 124 -38 l69 -38 43 48 c24 26 42 55 41 63 -4 25
-108 89 -172 105 -73 18 -145 18 -205 -1z"/>
<path d="M2269 1858 c0 -2 -2 -33 -5 -70 l-4 -68 135 0 135 0 0 70 0 70 -130
0 c-71 0 -130 -1 -131 -2z"/>
</g>
</svg>
