<svg width="300" height="80" viewBox="0 0 300 80" fill="none" xmlns="http://www.w3.org/2000/svg">
  <!-- Medical Cross Icon -->
  <path d="M35 20H25V30H15V40H25V50H35V40H45V30H35V20Z" fill="#0066CC"/>
  
  <!-- E-CARENERS Text -->
  <text x="60" y="35" font-family="Arial, sans-serif" font-size="24" font-weight="bold" fill="#0066CC">E-CARENERS</text>
  
  <!-- Medical Learning Platform Subtitle -->
  <text x="60" y="55" font-family="Arial, sans-serif" font-size="12" fill="#00A896">Medical Learning Platform</text>
  
  <!-- Stethoscope Icon -->
  <path d="M250 25C250 25 245 20 240 20C235 20 230 25 230 30C230 35 235 40 240 40C245 40 250 35 250 30" stroke="#0066CC" stroke-width="2" fill="none"/>
  <path d="M250 30L260 30" stroke="#0066CC" stroke-width="2"/>
  <path d="M260 30C260 30 265 25 270 25C275 25 280 30 280 35C280 40 275 45 270 45C265 45 260 40 260 35" stroke="#0066CC" stroke-width="2" fill="none"/>
  <path d="M280 35L290 35" stroke="#0066CC" stroke-width="2"/>
  <circle cx="290" cy="35" r="3" fill="#0066CC"/>
</svg>
